:SAMPLES-PER-SECOND 30
:FULLY-SPECIFIED
:DEGREES
442
root  -30.2124 33.8257 7.088 -175.007 -16.9572 -175.857
RightUpLeg  -11.8954 -13.3094 -9.50128
RightLeg  26.4879 -2.11458 -0.895193
RightFoot  11.8437 0.0936778 -0.354895
RightToes  -52.8831 -0.328682 -0.375765
Spine  -2.84132 0.0972418 -3.97956
Spine1  -5.49655 -0.0251683 -7.1186
HEad  -61.0092 -2.85818 -19.2955
LeftShoulder1  -1.94126e-019 -3.10601e-018 -2.51263e-017
LeftArm  -29.2847 -4.64842 -58.7872
LeftForeArm  29.3462 -19.0054 -3.47634
LeftHand  -0.38488 1.21919 10.6657
RightShoulder  -4.96962e-017 0 -2.36833e-017
RightArm  -32.2547 4.16865 66.6182
RightForeArm  29.9353 37.8003 6.90872
RightHand  0.0755518 -8.32686 -4.52585
LeftUpLeg  -12.2488 10.4343 13.1559
LeftLeg  30.9868 12.0097 6.12661
LeftFoot  -1.81373 -0.0065707 -0.253567
LeftToes  -33.8224 1.70063e-006 7.6642e-008
443
root  -30.7984 33.7487 7.41122 -174.027 -18.3081 -175.718
RightUpLeg  -12.2661 -13.6216 -10.1064
RightLeg  25.4069 -2.95062 -1.18025
RightFoot  13.3982 0.136273 -0.606957
RightToes  -54.5247 -0.343619 -0.381667
Spine  -2.04948 0.25928 -3.80434
Spine1  -4.03785 0.351309 -6.739
HEad  -65.2053 -2.85332 -16.902
LeftShoulder1  -1.94126e-019 -3.10601e-018 -2.51263e-017
LeftArm  -26.2301 5.40162 -63.1096
LeftForeArm  21.3276 -7.05616 -1.23892
LeftHand  -0.317342 2.48299 12.4337
RightShoulder  -4.96962e-017 0 -2.36833e-017
RightArm  -33.4346 1.36956 65.4824
RightForeArm  57.787 15.904 2.84483
RightHand  -0.0935099 -2.01407 -2.88848
LeftUpLeg  -14.1814 8.02636 11.6818
LeftLeg  31.7776 13.7983 7.25154
LeftFoot  -3.58391 -0.0309554 -0.827868
LeftToes  -30.0267 1.70063e-006 7.6642e-008
444
root  -31.4019 33.4074 7.66383 -173.593 -19.8084 -175.238
RightUpLeg  -13.4227 -14.5641 -10.5227
RightLeg  27.1987 -3.97219 -1.73311
RightFoot  13.5226 0.16608 -0.842104
RightToes  -56.7808 -0.36441 -0.389076
Spine  -0.818378 1.07753 -3.77703
Spine1  -1.70205 2.04304 -6.58634
HEad  -70.7808 -4.74561 -12.551
LeftShoulder1  -1.94126e-019 -3.10601e-018 -2.51263e-017
LeftArm  -30.7514 15.1674 -67.4837
LeftForeArm  22.0459 -6.49354 -1.13655
LeftHand  -0.324451 1.80001 10.3566
RightShoulder  -4.96962e-017 0 -2.36833e-017
RightArm  -17.0128 -8.71268 64.7351
RightForeArm  80.6004 12.043 2.06553
RightHand  0.31876 6.80057 2.67617
LeftUpLeg  -16.7017 3.59872 11.0262
LeftLeg  35.499 15.5193 9.42026
LeftFoot  -6.335 -0.115161 -1.91918
LeftToes  -31.1613 1.70063e-006 7.6642e-008
445
root  -31.9138 33.0987 7.83867 -172.576 -21.9142 -175.409
RightUpLeg  -15.9945 -14.7341 -11.0782
RightLeg  31.4983 -6.81007 -3.58949
RightFoot  14.0529 0.269239 -1.60866
RightToes  -58.7758 -0.383026 -0.394941
Spine  -0.151693 2.26305 -3.95022
Spine1  -0.491999 4.66265 -7.14755
HEad  -74.5548 -7.38131 -7.77508
LeftShoulder1  -1.94126e-019 -3.10601e-018 -2.51263e-017
LeftArm  -33.326 24.8896 -69.9557
LeftForeArm  25.2132 -8.33175 -1.45947
LeftHand  -0.394073 0.34888 9.11271
RightShoulder  -4.96962e-017 0 -2.36833e-017
RightArm  -17.1988 -19.9894 67.7896
RightForeArm  88.9601 7.27252 1.16753
RightHand  0.0634804 5.49508 0.357584
LeftUpLeg  -20.269 1.51515 10.0311
LeftLeg  39.7529 15.1373 10.7639
LeftFoot  -8.31846 -0.206538 -2.67803
LeftToes  -30.5949 1.70063e-006 7.6642e-008
446
root  -32.3479 32.9215 7.91846 -170.982 -24.1092 -176.118
RightUpLeg  -19.2663 -14.2848 -11.6494
RightLeg  36.6923 -10.5978 -6.82668
RightFoot  15.9161 0.523269 -3.13946
RightToes  -59.5222 -0.390041 -0.396968
Spine  -0.166419 2.81241 -3.86528
Spine1  -0.368802 6.00047 -7.34303
HEad  -74.9603 -8.98917 -5.42335
LeftShoulder1  -1.94126e-019 -3.10601e-018 -2.51263e-017
LeftArm  -37.7695 35.4747 -71.4915
LeftForeArm  23.144 -8.77258 -1.53609
LeftHand  -0.441375 0.305845 10.1244
RightShoulder  -4.96962e-017 0 -2.36833e-017
RightArm  -22.9275 -32.3697 72.0432
RightForeArm  84.9977 9.81971 1.54339
RightHand  -0.647849 3.71357 -8.50629
LeftUpLeg  -22.7434 2.82563 8.89296
LeftLeg  40.7981 12.2639 9.12528
LeftFoot  -9.89689 -0.243151 -2.64622
LeftToes  -29.9565 1.70063e-006 7.6642e-008
447
root  -32.7492 32.9338 7.94458 -170.033 -26.6311 -176.762
RightUpLeg  -21.4359 -15.0585 -11.9237
RightLeg  41.0114 -13.353 -10.0048
RightFoot  17.6168 0.821653 -4.67414
RightToes  -54.9873 -0.347858 -0.383253
Spine  -0.457255 2.29161 -3.63681
Spine1  -0.682568 5.33894 -7.2279
HEad  -72.9373 -7.96849 -5.89486
LeftShoulder1  -1.94126e-019 -3.10601e-018 -2.51263e-017
LeftArm  -43.5656 46.3376 -72.702
LeftForeArm  17.9561 -7.61315 -1.33283
LeftHand  -0.362819 1.78965 11.5795
RightShoulder  -4.96962e-017 0 -2.36833e-017
RightArm  -32.706 -41.6921 77.2849
RightForeArm  67.7759 12.9831 1.32835
RightHand  -0.713336 6.92743 -7.055
LeftUpLeg  -23.7825 4.32557 7.89237
LeftLeg  40.1209 9.23793 6.75304
LeftFoot  -10.1596 -0.189399 -1.96887
LeftToes  -30.6792 1.70063e-006 7.6642e-008
448
root  -33.0859 33.1331 7.87176 -169.781 -28.8747 -177.184
RightUpLeg  -22.8281 -15.8808 -11.6328
RightLeg  44.3555 -14.2891 -11.9945
RightFoot  16.1829 0.766979 -4.75736
RightToes  -36.0297 -0.187569 -0.291614
Spine  -0.48168 1.16824 -3.40586
Spine1  -0.576531 3.43469 -6.96695
HEad  -70.7153 -6.04105 -6.34262
LeftShoulder1  -1.94126e-019 -3.10601e-018 -2.51263e-017
LeftArm  -48.2106 56.0966 -75.0017
LeftForeArm  13.0162 -6.06464 -1.06674
LeftHand  -0.154375 4.15077 13.4207
RightShoulder  -4.96962e-017 0 -2.36833e-017
RightArm  -40.2207 -47.2337 81.4851
RightForeArm  53.4744 15.3174 1.15183
RightHand  0.406102 6.20144 3.71995
LeftUpLeg  -23.0923 4.01866 7.25994
LeftLeg  37.8975 7.95874 5.37269
LeftFoot  -9.37148 -0.131348 -1.44087
LeftToes  -30.9565 1.70063e-006 7.6642e-008
449
root  -33.2539 33.4023 7.72551 -169.341 -29.5993 -177.103
RightUpLeg  -25.4222 -14.7133 -10.2115
RightLeg  46.4822 -8.00624 -7.38247
RightFoot  10.5526 0.190704 -1.48118
RightToes  -31.7007 -0.155806 -0.263611
Spine  -0.510286 0.275521 -3.1619
Spine1  -0.509872 1.71666 -6.487
HEad  -69.8931 -4.71849 -5.66109
LeftShoulder1  -1.94126e-019 -3.10601e-018 -2.51263e-017
LeftArm  -53.2297 63.7574 -79.2833
LeftForeArm  12.1891 -4.57314 -0.812941
LeftHand  0.046283 5.84723 15.3006
RightShoulder  -4.96962e-017 0 -2.36833e-017
RightArm  -40.7221 -51.1612 82.9659
RightForeArm  53.3513 16.529 1.10421
RightHand  0.606282 5.89554 5.8893
LeftUpLeg  -22.0798 3.53077 7.17773
LeftLeg  35.1423 8.18078 4.97044
LeftFoot  -8.29321 -0.100902 -1.23018
LeftToes  -29.9317 1.70063e-006 7.6642e-008
450
root  -33.2894 33.6408 7.50974 -168.764 -28.8512 -176.542
RightUpLeg  -29.0135 -12.4241 -7.4751
RightLeg  48.1233 -2.74558 -2.73169
RightFoot  6.64636 0.0325485 -0.0210131
RightToes  -32.7747 -0.163488 -0.270781
Spine  -0.520658 -0.0916734 -2.84469
Spine1  -0.429597 0.883887 -5.78121
HEad  -70.4265 -4.22719 -4.23844
LeftShoulder1  -1.94126e-019 -3.10601e-018 -2.51263e-017
LeftArm  -55.0336 68.6389 -84.5717
LeftForeArm  10.4909 -3.52775 -0.629997
LeftHand  0.0811208 6.07772 15.9917
RightShoulder  -4.96962e-017 0 -2.36833e-017
RightArm  -37.6473 -54.3834 82.1368
RightForeArm  58.4443 17.2733 0.985591
RightHand  0.257484 6.84512 2.08441
LeftUpLeg  -21.3837 3.47179 7.61176
LeftLeg  33.086 9.29497 5.19601
LeftFoot  -7.33519 -0.0876864 -1.20638
LeftToes  -29.0974 1.70063e-006 7.6642e-008
451
root  -33.3075 33.8361 7.20611 -168.633 -27.4785 -175.946
RightUpLeg  -31.2434 -10.2512 -4.39449
RightLeg  46.9591 -0.187959 -0.216809
RightFoot  4.04388 0.00786987 0.292474
RightToes  -35.6292 -0.184542 -0.289125
Spine  -0.288129 -0.237702 -2.54274
Spine1  0.0866184 0.356075 -5.03367
HEad  -71.2878 -3.9781 -2.61182
LeftShoulder1  -1.94126e-019 -3.10601e-018 -2.51263e-017
LeftArm  -56.6751 71.4242 -89.4595
LeftForeArm  9.29621 -3.9152 -0.694911
LeftHand  0.0311626 5.74906 14.7377
RightShoulder  -4.96962e-017 0 -2.36833e-017
RightArm  -36.9142 -56.4885 79.5851
RightForeArm  60.7234 16.9136 0.892381
RightHand  -0.122566 6.5776 -1.53274
LeftUpLeg  -20.1223 3.74001 8.14992
LeftLeg  31.3713 10.6169 5.51779
LeftFoot  -6.38413 -0.0752525 -1.18774
LeftToes  -28.8706 1.70063e-006 7.6642e-008
452
root  -33.329 33.9493 6.89897 -168.243 -26.9317 -175.733
RightUpLeg  -32.096 -9.98332 -1.46449
RightLeg  42.0934 2.24276 1.74895
RightFoot  1.24864 0.00219675 0.268295
RightToes  -38.7399 -0.208496 -0.307894
Spine  -0.0941897 -0.609684 -2.33004
Spine1  0.527817 -0.623521 -4.44372
HEad  -71.9653 -3.46623 -1.08962
LeftShoulder1  -1.94126e-019 -3.10601e-018 -2.51263e-017
LeftArm  -57.2445 72.7572 -90.9222
LeftForeArm  10.8278 -5.30581 -0.934607
LeftHand  -0.0949312 4.59494 11.8273
RightShoulder  -4.96962e-017 0 -2.36833e-017
RightArm  -37.6751 -57.7556 75.423
RightForeArm  56.9397 15.5746 1.04688
RightHand  -0.211795 5.13328 -2.6411
LeftUpLeg  -19.535 3.9654 8.39092
LeftLeg  30.3777 11.3337 5.63927
LeftFoot  -5.64281 -0.0627392 -1.11145
LeftToes  -28.7028 1.70063e-006 7.6642e-008
